<svg width="22" height="22" viewBox="0 0 22 22" fill="none" xmlns="http://www.w3.org/2000/svg">
<path d="M10 19H3C2.46957 19 1.96086 18.7893 1.58579 18.4142C1.21071 18.0391 1 17.5304 1 17V3C1 2.46957 1.21071 1.96086 1.58579 1.58579C1.96086 1.21071 2.46957 1 3 1H17C17.5304 1 18.0391 1.21071 18.4142 1.58579C18.7893 1.96086 19 2.46957 19 3V10M1 8H19M8 1V19M17.001 19C16.4706 19 15.9619 18.7893 15.5868 18.4142C15.2117 18.0391 15.001 17.5304 15.001 17C15.001 16.4696 15.2117 15.9609 15.5868 15.5858C15.9619 15.2107 16.4706 15 17.001 15M17.001 19C17.5314 19 18.0401 18.7893 18.4152 18.4142C18.7903 18.0391 19.001 17.5304 19.001 17C19.001 16.4696 18.7903 15.9609 18.4152 15.5858C18.0401 15.2107 17.5314 15 17.001 15M17.001 19V20.5M17.001 15V13.5M20.032 15.25L18.733 16M15.27 18L13.97 18.75M13.97 15.25L15.27 16M18.733 18L20.033 18.75" stroke="#333333" stroke-width="2" stroke-linecap="round" stroke-linejoin="round"/>
</svg>
