<svg width="22" height="22" viewBox="0 0 22 22" fill="none" xmlns="http://www.w3.org/2000/svg">
<path d="M0.5 4.875C0.5 3.71468 0.960936 2.60188 1.78141 1.78141C2.60188 0.960936 3.71468 0.5 4.875 0.5H17.125C18.2853 0.5 19.3981 0.960936 20.2186 1.78141C21.0391 2.60188 21.5 3.71468 21.5 4.875V17.125C21.5 18.2853 21.0391 19.3981 20.2186 20.2186C19.3981 21.0391 18.2853 21.5 17.125 21.5H4.875C3.71468 21.5 2.60188 21.0391 1.78141 20.2186C0.960936 19.3981 0.5 18.2853 0.5 17.125V4.875ZM4.875 2.25C4.17881 2.25 3.51113 2.52656 3.01884 3.01884C2.52656 3.51113 2.25 4.17881 2.25 4.875V5.75H10.125V2.25H4.875ZM11.875 2.25V14.5H19.75V4.875C19.75 4.17881 19.4734 3.51113 18.9812 3.01884C18.4889 2.52656 17.8212 2.25 17.125 2.25H11.875ZM19.75 16.25H11.875V19.75H17.125C17.8212 19.75 18.4889 19.4734 18.9812 18.9812C19.4734 18.4889 19.75 17.8212 19.75 17.125V16.25ZM10.125 19.75V7.5H2.25V17.125C2.25 17.8212 2.52656 18.4889 3.01884 18.9812C3.51113 19.4734 4.17881 19.75 4.875 19.75H10.125Z" fill="#333333"/>
</svg>
